<svg xmlns="http://www.w3.org/2000/svg" version="1.1" xmlns:xlink="http://www.w3.org/1999/xlink" xmlns:svgjs="http://svgjs.com/svgjs" width="24px" height="24px"><svg xmlns="http://www.w3.org/2000/svg" viewBox="0 0 24 24" width="24px" height="24px">    <path d="M12,2C6.477,2,2,6.477,2,12c0,5.523,4.477,10,10,10s10-4.477,10-10C22,6.477,17.523,2,12,2z M12,4.75 c1.795,0,3.25,1.455,3.25,3.25s-1.455,3.25-3.25,3.25S8.75,9.795,8.75,8S10.205,4.75,12,4.75z M12,20 c-2.77,0-5.21-1.408-6.646-3.547C6.475,14.823,10.046,14,12,14s5.525,0.823,6.646,2.453C17.21,18.592,14.77,20,12,20z"></path></svg><style>@media (prefers-color-scheme: light) { :root { filter: none; } }
@media (prefers-color-scheme: dark) { :root { filter: invert(100%); } }
</style></svg>