<?xml version="1.0" standalone="no"?>
<!DOCTYPE svg PUBLIC "-//W3C//DTD SVG 20010904//EN"
 "http://www.w3.org/TR/2001/REC-SVG-20010904/DTD/svg10.dtd">
<svg version="1.0" xmlns="http://www.w3.org/2000/svg"
 width="700.000000pt" height="700.000000pt" viewBox="0 0 700.000000 700.000000"
 preserveAspectRatio="xMidYMid meet">
<metadata>
Created by potrace 1.14, written by Peter Selinger 2001-2017
</metadata>
<g transform="translate(0.000000,700.000000) scale(0.100000,-0.100000)"
fill="#000000" stroke="none">
<path d="M3290 6410 c-1226 -94 -2256 -932 -2596 -2112 -39 -135 -76 -329 -95
-488 -16 -135 -16 -485 0 -620 61 -519 242 -991 540 -1400 653 -899 1756
-1351 2846 -1165 297 50 530 127 810 265 418 206 757 489 1041 866 584 777
739 1813 409 2730 -255 709 -774 1291 -1450 1624 -266 131 -486 206 -749 255
-244 44 -534 62 -756 45z m376 -811 c370 -65 664 -343 756 -716 30 -123 30
-312 0 -437 -105 -426 -486 -726 -922 -726 -435 0 -818 302 -922 726 -30 125
-30 314 0 437 90 364 372 638 732 712 80 16 275 19 356 4z m200 -2710 c490
-61 985 -224 1290 -425 86 -56 204 -160 254 -224 l30 -38 -77 -104 c-89 -120
-273 -312 -388 -405 -350 -283 -783 -464 -1227 -512 -125 -14 -371 -14 -496 0
-447 48 -901 240 -1240 522 -147 123 -350 346 -436 479 l-18 28 98 98 c194
192 481 342 878 457 483 139 901 179 1332 124z"/>
</g>
</svg>
